# xmcd CD database file
#
# Track frame offsets:
#	150
#	8090
#	22912
#	37360
#	56045
#	71224
#	85502
#	101512
#	116730
#	129913
#	142152
#	155360
#	167220
#	182035
#	196699
#	218859
#
# Disc length: 3091 seconds
#
# Revision: 0
# Processed by: cddbd v1.5.2PL0 Copyright (c) Steve Scherf et al.
# Submitted via: CDex 1.70beta2
#
DISCID=de0c1110
DTITLE=Stanley's Dixie Street Band - Greatest Hits
DYEAR=2019
DGENRE=Jazz
TTITLE0=Woodchopper's Ball
TTITLE1=Margie
TTITLE2=Blueberry Hill
TTITLE3=Sweet Sue
TTITLE4=Tiger Rag
TTITLE5=Mack The Knife
TTITLE6=Ice Cream
TTITLE7=What A Wonderful World
TTITLE8=Summertime
TTITLE9=Alexander's Ragtime Band
TTITLE10=The Sheik Of Araby
TTITLE11=Down By The Riverside
TTITLE12=Hight Society
TTITLE13=I Can't Give You
TTITLE14=Caravan
TTITLE15=When The Saints Go Marching In
EXTD=YEAR: 2019
EXTT0=
EXTT1=
EXTT2=
EXTT3=
EXTT4=
EXTT5=
EXTT6=
EXTT7=
EXTT8=
EXTT9=
EXTT10=
EXTT11=
EXTT12=
EXTT13=
EXTT14=
EXTT15=
PLAYORDER=
